<svg width="10" height="16" viewBox="0 0 10 16" fill="none" xmlns="http://www.w3.org/2000/svg">
<path d="M0.762534 9.05568L7.12253 15.4157C7.26198 15.5563 7.42788 15.6679 7.61067 15.744C7.79346 15.8202 7.98951 15.8594 8.18753 15.8594C8.38555 15.8594 8.58161 15.8202 8.7644 15.744C8.94719 15.6679 9.11309 15.5563 9.25253 15.4157C9.53191 15.1346 9.68872 14.7545 9.68872 14.3582C9.68872 13.9619 9.53191 13.5817 9.25253 13.3007L3.94253 7.99068L9.25253 2.68068C9.53191 2.39964 9.68872 2.01946 9.68872 1.62318C9.68872 1.2269 9.53191 0.846723 9.25253 0.56568C9.11237 0.426657 8.94615 0.31667 8.76339 0.242023C8.58064 0.167376 8.38494 0.129539 8.18753 0.130681C7.99012 0.129539 7.79443 0.167376 7.61167 0.242023C7.42892 0.31667 7.26269 0.426657 7.12253 0.565679L0.762534 6.92568C0.621941 7.06512 0.51035 7.23102 0.434197 7.41381C0.358044 7.5966 0.318836 7.79266 0.318836 7.99068C0.318836 8.1887 0.358044 8.38475 0.434197 8.56754C0.51035 8.75033 0.621941 8.91623 0.762534 9.05568Z" fill="white"/>
</svg>
