<svg width="8" height="12" viewBox="0 0 8 12" fill="none" xmlns="http://www.w3.org/2000/svg">
<path d="M1.17494 6.70639L5.41494 10.9464C5.5079 11.0401 5.6185 11.1145 5.74036 11.1653C5.86222 11.216 5.99293 11.2422 6.12494 11.2422C6.25695 11.2422 6.38766 11.216 6.50952 11.1653C6.63138 11.1145 6.74198 11.0401 6.83494 10.9464C7.02119 10.759 7.12573 10.5056 7.12573 10.2414C7.12573 9.9772 7.02119 9.72375 6.83494 9.53639L3.29494 5.99639L6.83494 2.45639C7.02119 2.26903 7.12573 2.01557 7.12573 1.75139C7.12573 1.4872 7.02119 1.23375 6.83494 1.04639C6.7415 0.953708 6.63068 0.880382 6.50885 0.830618C6.38701 0.780853 6.25655 0.755629 6.12494 0.75639C5.99333 0.755628 5.86287 0.780853 5.74103 0.830618C5.6192 0.880382 5.50838 0.953708 5.41494 1.04639L1.17494 5.28639C1.08121 5.37935 1.00682 5.48995 0.956049 5.61181C0.905281 5.73367 0.879142 5.86438 0.879142 5.99639C0.879142 6.1284 0.905281 6.25911 0.956049 6.38097C1.00682 6.50282 1.08121 6.61343 1.17494 6.70639Z" fill="#444444"/>
</svg>
