<svg width="8" height="12" viewBox="0 0 8 12" fill="none" xmlns="http://www.w3.org/2000/svg">
<path d="M6.82506 5.29361L2.58506 1.05361C2.4921 0.959882 2.3815 0.885488 2.25964 0.834719C2.13778 0.783951 2.00707 0.757813 1.87506 0.757813C1.74305 0.757813 1.61234 0.783951 1.49048 0.834719C1.36862 0.885488 1.25802 0.959882 1.16506 1.05361C0.978809 1.24097 0.874268 1.49442 0.874268 1.75861C0.874268 2.0228 0.978809 2.27625 1.16506 2.46361L4.70506 6.00361L1.16506 9.54361C0.978809 9.73097 0.874267 9.98443 0.874267 10.2486C0.874267 10.5128 0.978809 10.7662 1.16506 10.9536C1.2585 11.0463 1.36932 11.1196 1.49115 11.1694C1.61299 11.2191 1.74345 11.2444 1.87506 11.2436C2.00667 11.2444 2.13713 11.2191 2.25897 11.1694C2.3808 11.1196 2.49162 11.0463 2.58506 10.9536L6.82506 6.71361C6.91879 6.62065 6.99318 6.51005 7.04395 6.38819C7.09472 6.26633 7.12086 6.13562 7.12086 6.00361C7.12086 5.8716 7.09472 5.74089 7.04395 5.61903C6.99318 5.49718 6.91879 5.38657 6.82506 5.29361Z" fill="#444444"/>
</svg>
