<svg width="10" height="16" viewBox="0 0 10 16" fill="none" xmlns="http://www.w3.org/2000/svg">
<path d="M9.23747 6.94432L2.87747 0.584322C2.73802 0.44373 2.57212 0.332138 2.38933 0.255985C2.20654 0.179832 2.01049 0.140625 1.81247 0.140625C1.61445 0.140625 1.41839 0.179832 1.2356 0.255985C1.05281 0.332138 0.886912 0.44373 0.747468 0.584322C0.468092 0.865366 0.311279 1.24554 0.311279 1.64182C0.311279 2.0381 0.468092 2.41828 0.747468 2.69932L6.05747 8.00932L0.747468 13.3193C0.468092 13.6004 0.311279 13.9805 0.311279 14.3768C0.311279 14.7731 0.468092 15.1533 0.747468 15.4343C0.887628 15.5733 1.05385 15.6833 1.23661 15.758C1.41936 15.8326 1.61506 15.8705 1.81247 15.8693C2.00988 15.8705 2.20557 15.8326 2.38833 15.758C2.57108 15.6833 2.73731 15.5733 2.87747 15.4343L9.23747 9.07432C9.37806 8.93488 9.48965 8.76898 9.5658 8.58619C9.64196 8.4034 9.68116 8.20734 9.68116 8.00932C9.68116 7.8113 9.64196 7.61524 9.5658 7.43246C9.48965 7.24967 9.37806 7.08377 9.23747 6.94432Z" fill="white"/>
</svg>
