<svg width="24" height="25" viewBox="0 0 24 25" fill="none" xmlns="http://www.w3.org/2000/svg">
<g clip-path="url(#clip0_21635_119049)">
<path d="M14.8576 6.95026C14.6083 6.52026 14.1985 6.20683 13.7182 6.07885C13.2379 5.95087 12.7265 6.01882 12.2963 6.26776L6.45381 9.64276C6.02317 9.89141 5.70894 10.3009 5.58025 10.7813C5.45155 11.2616 5.51893 11.7734 5.76756 12.204L9.14256 18.0465C9.3912 18.4772 9.80073 18.7914 10.2811 18.9201C10.7614 19.0488 11.2732 18.9814 11.7038 18.7328L17.5463 15.3578C17.7598 15.235 17.9471 15.0713 18.0974 14.8761C18.2476 14.6809 18.3579 14.458 18.422 14.2201C18.4861 13.9823 18.5027 13.7341 18.4708 13.4898C18.4389 13.2456 18.3593 13.01 18.2363 12.7965L14.8576 6.95026ZM16.9726 13.8315C16.9598 13.8794 16.9376 13.9243 16.9073 13.9635C16.8771 14.0028 16.8393 14.0357 16.7963 14.0603L10.9538 17.4353C10.911 17.4601 10.8637 17.4761 10.8147 17.4826C10.7656 17.489 10.7158 17.4857 10.6681 17.4728C10.6203 17.4599 10.5756 17.4377 10.5364 17.4074C10.4973 17.3772 10.4646 17.3395 10.4401 17.2965L7.06506 11.454C7.04026 11.4112 7.02418 11.3639 7.01774 11.3149C7.01129 11.2658 7.01461 11.216 7.02751 11.1683C7.04041 11.1205 7.06262 11.0758 7.09288 11.0366C7.12314 10.9975 7.16084 10.9648 7.20381 10.9403L13.0463 7.56526C13.0891 7.54047 13.1364 7.52439 13.1854 7.51794C13.2345 7.5115 13.2843 7.51482 13.3321 7.52772C13.3798 7.54061 13.4245 7.56283 13.4637 7.59309C13.5028 7.62334 13.5356 7.66104 13.5601 7.70401L16.9351 13.5465C16.9597 13.5892 16.9758 13.6364 16.9822 13.6853C16.9886 13.7342 16.9854 13.7839 16.9726 13.8315Z" fill="white"/>
<path d="M23.25 19.7038H21.5963C22.9343 17.9212 23.7494 15.8012 23.9502 13.5814C24.1511 11.3616 23.7298 9.12974 22.7334 7.13595C21.7371 5.14216 20.2052 3.46525 18.3094 2.29318C16.4136 1.1211 14.2289 0.500174 12 0.5C11.8011 0.5 11.6103 0.579018 11.4697 0.71967C11.329 0.860322 11.25 1.05109 11.25 1.25C11.25 1.44891 11.329 1.63968 11.4697 1.78033C11.6103 1.92098 11.8011 2 12 2C13.906 1.99963 15.7761 2.51806 17.4099 3.49969C19.0436 4.48132 20.3793 5.88913 21.2739 7.57216C22.1684 9.25519 22.5879 11.15 22.4875 13.0533C22.387 14.9566 21.7704 16.7967 20.7037 18.3763V17.1613C20.7037 16.9623 20.6247 16.7716 20.4841 16.6309C20.3434 16.4903 20.1527 16.4113 19.9537 16.4113C19.7548 16.4113 19.5641 16.4903 19.4234 16.6309C19.2828 16.7716 19.2037 16.9623 19.2037 17.1613V20.4538C19.2037 20.6527 19.2828 20.8434 19.4234 20.9841C19.5641 21.1247 19.7548 21.2038 19.9537 21.2038H23.25C23.4489 21.2038 23.6397 21.1247 23.7803 20.9841C23.921 20.8434 24 20.6527 24 20.4538C24 20.2548 23.921 20.0641 23.7803 19.9234C23.6397 19.7828 23.4489 19.7038 23.25 19.7038Z" fill="white"/>
<path d="M12 23.0006C10.094 23.001 8.2239 22.4826 6.59015 21.5009C4.9564 20.5193 3.62066 19.1115 2.72615 17.4285C1.83164 15.7454 1.41211 13.8507 1.51254 11.9473C1.61298 10.044 2.22959 8.20392 3.29625 6.62438V7.83938C3.29625 8.03829 3.37527 8.22905 3.51592 8.36971C3.65657 8.51036 3.84734 8.58938 4.04625 8.58938C4.24516 8.58938 4.43593 8.51036 4.57658 8.36971C4.71723 8.22905 4.79625 8.03829 4.79625 7.83938V4.54688C4.79625 4.34796 4.71723 4.1572 4.57658 4.01655C4.43593 3.87589 4.24516 3.79688 4.04625 3.79688H0.75C0.551088 3.79688 0.360322 3.87589 0.21967 4.01655C0.0790176 4.1572 0 4.34796 0 4.54688C0 4.74579 0.0790176 4.93655 0.21967 5.07721C0.360322 5.21786 0.551088 5.29688 0.75 5.29688H2.40375C1.06574 7.07944 0.25062 9.19943 0.0497619 11.4192C-0.151096 13.639 0.270242 15.8709 1.26655 17.8647C2.26286 19.8585 3.79477 21.5354 5.69057 22.7075C7.58637 23.8795 9.77114 24.5005 12 24.5006C12.1989 24.5006 12.3897 24.4216 12.5303 24.281C12.671 24.1403 12.75 23.9495 12.75 23.7506C12.75 23.5517 12.671 23.3609 12.5303 23.2203C12.3897 23.0796 12.1989 23.0006 12 23.0006Z" fill="white"/>
<path d="M17.2914 21.579C17.1586 21.6453 17.0484 21.7496 16.9749 21.8785C16.9014 22.0075 16.8678 22.1553 16.8784 22.3034C16.8889 22.4515 16.9432 22.5931 17.0343 22.7103C17.1254 22.8275 17.2492 22.915 17.3901 22.9618C17.531 23.0086 17.6826 23.0125 17.8257 22.9731C17.9688 22.9336 18.097 22.8526 18.194 22.7403C18.291 22.628 18.3526 22.4894 18.3708 22.3421C18.389 22.1948 18.3631 22.0454 18.2964 21.9128C18.2071 21.7355 18.0512 21.6008 17.8628 21.5382C17.6745 21.4757 17.469 21.4903 17.2914 21.579Z" fill="white"/>
</g>
<defs>
<clipPath id="clip0_21635_119049">
<rect width="24" height="24" fill="white" transform="translate(0 0.5)"/>
</clipPath>
</defs>
</svg>
