<svg width="24" height="23" viewBox="0 0 24 23" fill="none" xmlns="http://www.w3.org/2000/svg">
<path d="M23.2031 21.3484L18.0703 16.2203C19.5328 14.4484 20.3297 12.25 20.3297 9.925C20.3297 7.27656 19.2984 4.79219 17.4281 2.91719C15.5578 1.04688 13.0687 0.015625 10.4203 0.015625C7.77187 0.015625 5.2875 1.04688 3.4125 2.91719C-0.45 6.77969 -0.45 13.0656 3.4125 16.9281C5.28281 18.7984 7.77187 19.8297 10.4203 19.8297C12.7453 19.8297 14.9484 19.0328 16.7156 17.5703L21.8484 22.7031C22.3875 23.1953 22.9641 22.9422 23.2031 22.7031C23.5734 22.3281 23.5734 21.7234 23.2031 21.3484ZM16.0734 15.5734C14.5641 17.0828 12.5578 17.9172 10.4203 17.9172C8.28281 17.9172 6.27656 17.0875 4.76719 15.5734C1.65 12.4562 1.65 7.38437 4.76719 4.26719C6.27656 2.75781 8.28281 1.92812 10.4203 1.92812C12.5578 1.92812 14.5641 2.75781 16.0734 4.26719C17.5828 5.77656 18.4172 7.78281 18.4172 9.92031C18.4172 12.0578 17.5828 14.0641 16.0734 15.5734Z" fill="white"/>
<path d="M14.9812 8.96094H5.85933C5.32964 8.96094 4.90308 9.3875 4.90308 9.91719C4.90308 10.4469 5.32964 10.8734 5.85933 10.8734H14.9812C15.5109 10.8734 15.9375 10.4469 15.9375 9.91719C15.9421 9.39219 15.5109 8.96094 14.9812 8.96094Z" fill="white"/>
</svg>
