<svg width="24" height="23" viewBox="0 0 24 23" fill="none" xmlns="http://www.w3.org/2000/svg">
<path d="M13.5844 8.88437H11.2734V6.57344C11.2734 6.04375 10.8469 5.61719 10.3172 5.61719C9.7875 5.61719 9.36094 6.04375 9.36094 6.57344V8.88437H7.05C6.52031 8.88437 6.09375 9.31094 6.09375 9.84063C6.09375 10.3703 6.52031 10.7969 7.05 10.7969H9.36094V13.1078C9.36094 13.6375 9.7875 14.0641 10.3172 14.0641C10.8469 14.0641 11.2734 13.6375 11.2734 13.1078V10.7969H13.5844C14.1141 10.7969 14.5406 10.3703 14.5406 9.84063C14.5406 9.31094 14.1094 8.88437 13.5844 8.88437Z" fill="white"/>
<path d="M10.3219 17.7172C5.96719 17.7172 2.4375 14.1922 2.4375 9.8375C2.4375 5.48281 5.96719 1.95781 10.3219 1.95781C14.6766 1.95781 18.2016 5.4875 18.2016 9.8375C18.2016 14.1875 14.6719 17.7172 10.3219 17.7172ZM23.2031 21.3734L17.8922 16.0625C19.2844 14.3703 20.1234 12.2 20.1234 9.8375C20.1234 4.42344 15.7359 0.03125 10.3172 0.03125C4.89844 0.03125 0.515625 4.42344 0.515625 9.8375C0.515625 15.2516 4.90312 19.6437 10.3219 19.6437C12.6844 19.6437 14.85 18.8094 16.5422 17.4172L21.8531 22.7281C22.0969 22.9766 22.8422 23.0984 23.2078 22.7281C23.5781 22.3531 23.5781 21.7484 23.2031 21.3734Z" fill="white"/>
</svg>
